<svg width="1134" height="545" xmlns="http://www.w3.org/2000/svg" xmlns:xlink="http://www.w3.org/1999/xlink" overflow="hidden"><defs><clipPath id="clip0"><rect x="1066" y="881" width="1134" height="545"/></clipPath><clipPath id="clip1"><rect x="1184" y="1081" width="190" height="190"/></clipPath><clipPath id="clip2"><rect x="1184" y="1081" width="190" height="190"/></clipPath><clipPath id="clip3"><rect x="1184" y="1081" width="190" height="190"/></clipPath></defs><g clip-path="url(#clip0)" transform="translate(-1066 -881)"><text fill="#5B9BD5" font-family="Calibri,Calibri_MSFontService,sans-serif" font-weight="400" font-size="128" transform="matrix(1 0 0 1 1448.57 1157)">500.000.000<tspan font-size="83" x="107.422" y="124">Faturamento</tspan></text><g clip-path="url(#clip1)"><g clip-path="url(#clip2)"><g clip-path="url(#clip3)"><path d="M145.688 112.219C141.356 112.219 137.813 108.675 137.813 104.344 137.813 100.013 141.356 96.4688 145.688 96.4688 150.019 96.4688 153.563 100.013 153.563 104.344 153.563 108.675 150.019 112.219 145.688 112.219ZM165.375 84.6563 161.438 84.6563 161.438 63C161.438 58.6688 157.894 55.125 153.563 55.125L43.3125 55.125C41.1469 55.125 39.375 53.3531 39.375 51.1875 39.375 49.0219 41.1469 47.25 43.3125 47.25L153.563 47.25 153.563 43.3125C153.563 38.9813 150.019 35.4375 145.688 35.4375L43.3125 35.4375C34.65 35.4375 27.5625 42.525 27.5625 51.1875L27.5625 137.813C27.5625 146.475 34.65 153.563 43.3125 153.563L153.563 153.563C157.894 153.563 161.438 150.019 161.438 145.688L161.438 124.031 165.375 124.031C167.541 124.031 169.313 122.259 169.313 120.094L169.313 88.5938C169.313 86.4282 167.541 84.6563 165.375 84.6563Z" fill="#D9D9D9" transform="matrix(1 0 0 1.00529 1185 1081)"/></g></g></g></g></svg>