<svg width="2153" height="417" xmlns="http://www.w3.org/2000/svg" xmlns:xlink="http://www.w3.org/1999/xlink" overflow="hidden"><defs><clipPath id="clip0"><rect x="381" y="363" width="2153" height="417"/></clipPath></defs><g clip-path="url(#clip0)" transform="translate(-381 -363)"><text fill="#D9D9D9" font-family="Segoe UI,Segoe UI_MSFontService,sans-serif" font-weight="400" font-size="55" transform="matrix(1 0 0 1 431.447 434)">Faturamento<tspan fill="#59B7C8" font-weight="700" font-size="83" x="0" y="102">R$ 2.500,00</tspan><tspan fill="#59B7C8" font-family="Segoe UI Semibold,Segoe UI Semibold_MSFontService,sans-serif" font-weight="600" font-size="64" x="265.016" y="236">35,65</tspan><tspan font-size="46" x="265.016" y="308">Vs. Ano Anterior</tspan></text><path d="M617 661 657 731 653.727 731 617.359 709.071 580.991 731 577 731Z" fill="#59B7C8" fill-rule="evenodd"/><text fill="#D9D9D9" font-family="Segoe UI,Segoe UI_MSFontService,sans-serif" font-weight="400" font-size="55" transform="matrix(1 0 0 1 1131.49 434)">Faturamento<tspan fill="#59B7C8" font-weight="700" font-size="83" x="0" y="102">R$ 2.500,00</tspan><tspan fill="#FF9B9B" font-family="Segoe UI Semibold,Segoe UI Semibold_MSFontService,sans-serif" font-weight="600" font-size="64" x="265.016" y="236">35,65</tspan><tspan font-size="46" x="265.016" y="308">Vs. Ano Anterior</tspan></text><path d="M1317 661 1357 731 1353.73 731 1317.36 709.071 1280.99 731 1277 731Z" fill="#59B7C8" fill-rule="evenodd"/><text fill="#D9D9D9" font-family="Segoe UI,Segoe UI_MSFontService,sans-serif" font-weight="400" font-size="55" transform="matrix(1 0 0 1 1886.12 434)">Faturamento<tspan fill="#59B7C8" font-weight="700" font-size="83" x="0" y="102">R$ 2.500,00</tspan><tspan fill="#59B7C8" font-family="Segoe UI Semibold,Segoe UI Semibold_MSFontService,sans-serif" font-weight="600" font-size="64" x="265.016" y="236">35,65</tspan><tspan font-size="46" x="265.016" y="308">Vs. Ano Anterior</tspan></text><path d="M2072 661 2112 731 2108.73 731 2072.36 709.071 2035.99 731 2032 731Z" fill="#59B7C8" fill-rule="evenodd"/></g></svg>