<svg width="1308" height="899" xmlns="http://www.w3.org/2000/svg" xmlns:xlink="http://www.w3.org/1999/xlink" overflow="hidden"><defs><clipPath id="clip0"><rect x="2755" y="783" width="1308" height="899"/></clipPath><linearGradient x1="3158.46" y1="946.423" x2="3254.61" y2="762.4" gradientUnits="userSpaceOnUse" spreadMethod="reflect" id="fill1"><stop offset="0" stop-color="#781E17" stop-opacity="0.501961"/><stop offset="0.5" stop-color="#AE2F25" stop-opacity="0.501961"/><stop offset="1" stop-color="#CF3A2E" stop-opacity="0.501961"/></linearGradient><linearGradient x1="3284.42" y1="965.792" x2="3403.47" y2="746.139" gradientUnits="userSpaceOnUse" spreadMethod="reflect" id="fill2"><stop offset="0" stop-color="#A07400" stop-opacity="0.501961"/><stop offset="0.5" stop-color="#E6A900" stop-opacity="0.501961"/><stop offset="1" stop-color="#FFCA00" stop-opacity="0.501961"/></linearGradient><linearGradient x1="3018.05" y1="975.707" x2="3085.16" y2="804.076" gradientUnits="userSpaceOnUse" spreadMethod="reflect" id="fill3"><stop offset="0" stop-color="#781E17" stop-opacity="0.501961"/><stop offset="0.5" stop-color="#AE2F25" stop-opacity="0.501961"/><stop offset="1" stop-color="#CF3A2E" stop-opacity="0.501961"/></linearGradient><linearGradient x1="3408.27" y1="1016.64" x2="3531.34" y2="779.569" gradientUnits="userSpaceOnUse" spreadMethod="reflect" id="fill4"><stop offset="0" stop-color="#A07400" stop-opacity="0.501961"/><stop offset="0.5" stop-color="#E6A900" stop-opacity="0.501961"/><stop offset="1" stop-color="#FFCA00" stop-opacity="0.501961"/></linearGradient><linearGradient x1="2896.2" y1="1059.23" x2="2970.7" y2="868.516" gradientUnits="userSpaceOnUse" spreadMethod="reflect" id="fill5"><stop offset="0" stop-color="#781E17" stop-opacity="0.501961"/><stop offset="0.5" stop-color="#AE2F25" stop-opacity="0.501961"/><stop offset="1" stop-color="#CF3A2E" stop-opacity="0.501961"/></linearGradient><linearGradient x1="3519.54" y1="1092.53" x2="3629.73" y2="861.952" gradientUnits="userSpaceOnUse" spreadMethod="reflect" id="fill6"><stop offset="0" stop-color="#2B6D79" stop-opacity="0.501961"/><stop offset="0.5" stop-color="#429EAF" stop-opacity="0.501961"/><stop offset="1" stop-color="#51BDD0" stop-opacity="0.501961"/></linearGradient><linearGradient x1="2800.18" y1="1168.62" x2="2886.88" y2="982.193" gradientUnits="userSpaceOnUse" spreadMethod="reflect" id="fill7"><stop offset="0" stop-color="#781E17" stop-opacity="0.501961"/><stop offset="0.5" stop-color="#AE2F25" stop-opacity="0.501961"/><stop offset="1" stop-color="#CF3A2E" stop-opacity="0.501961"/></linearGradient><linearGradient x1="3607.33" y1="1185.86" x2="3694.83" y2="987.806" gradientUnits="userSpaceOnUse" spreadMethod="reflect" id="fill8"><stop offset="0" stop-color="#2B6D79" stop-opacity="0.501961"/><stop offset="0.5" stop-color="#429EAF" stop-opacity="0.501961"/><stop offset="1" stop-color="#51BDD0" stop-opacity="0.501961"/></linearGradient><linearGradient x1="2742.08" y1="1290.13" x2="2841.74" y2="1139.32" gradientUnits="userSpaceOnUse" spreadMethod="reflect" id="fill9"><stop offset="0" stop-color="#781E17" stop-opacity="0.501961"/><stop offset="0.5" stop-color="#AE2F25" stop-opacity="0.501961"/><stop offset="1" stop-color="#CF3A2E" stop-opacity="0.501961"/></linearGradient><linearGradient x1="3660.93" y1="1328" x2="3753.33" y2="1142.15" gradientUnits="userSpaceOnUse" spreadMethod="reflect" id="fill10"><stop offset="0" stop-color="#2B6D79" stop-opacity="0.501961"/><stop offset="0.5" stop-color="#429EAF" stop-opacity="0.501961"/><stop offset="1" stop-color="#51BDD0" stop-opacity="0.501961"/></linearGradient><linearGradient x1="2742.08" y1="1407.13" x2="2829.61" y2="1328.76" gradientUnits="userSpaceOnUse" spreadMethod="reflect" id="fill11"><stop offset="0" stop-color="#781E17" stop-opacity="0.501961"/><stop offset="0.5" stop-color="#AE2F25" stop-opacity="0.501961"/><stop offset="1" stop-color="#CF3A2E" stop-opacity="0.501961"/></linearGradient><linearGradient x1="2790.94" y1="1546.11" x2="2861.17" y2="1496.57" gradientUnits="userSpaceOnUse" spreadMethod="reflect" id="fill12"><stop offset="0" stop-color="#781E17" stop-opacity="0.501961"/><stop offset="0.5" stop-color="#AE2F25" stop-opacity="0.501961"/><stop offset="1" stop-color="#CF3A2E" stop-opacity="0.501961"/></linearGradient></defs><g clip-path="url(#clip0)" transform="translate(-2755 -783)"><path d="M3259.97 783.699 3259.97 915.04 3223.03 913.175C3208.29 913.175 3193.73 913.922 3179.38 915.379L3151.33 919.66 3114.5 806.324 3163.35 793.766C3180 790.358 3196.95 787.759 3214.15 786.012Z" fill="url(#fill1)" fill-rule="evenodd"/><path d="M3272.96 783.699 3318.77 786.013C3335.98 787.759 3352.92 790.358 3369.58 793.766L3418.42 806.324 3374.54 941.355 3350 932.37C3336.63 928.212 3322.98 924.693 3309.08 921.849L3272.96 916.336Z" fill="url(#fill2)" fill-rule="evenodd"/><path d="M3102.29 810.774 3138.31 921.646 3136.99 921.849C3109.19 927.536 3082.38 935.924 3056.84 946.727L3030.62 959.36 2971.22 877.609 2980.39 870.752C3007.61 852.363 3036.7 836.524 3067.3 823.579Z" fill="url(#fill3)" fill-rule="evenodd"/><path d="M3430.63 810.775 3465.62 823.579C3496.23 836.525 3525.31 852.364 3552.53 870.753L3561.7 877.61 3475.44 996.334 3461.75 986.093C3439.03 970.747 3414.76 957.53 3389.22 946.727L3386.75 945.824Z" fill="url(#fill4)" fill-rule="evenodd"/><path d="M2960.82 885.391 3018.77 965.161 2984.32 986.093C2972.96 993.765 2961.99 1001.97 2951.45 1010.67L2922.43 1037.04 2856.83 989.378 2871.65 969.564C2892.5 944.295 2915.73 921.061 2941 900.207Z" fill="url(#fill5)" fill-rule="evenodd"/><path d="M3572.11 885.391 3591.92 900.207C3617.19 921.062 3640.42 944.295 3661.28 969.565L3676.09 989.379 3557.64 1075.44 3552.49 1068.55C3535.09 1047.46 3515.7 1028.07 3494.62 1010.67L3485.85 1004.11Z" fill="url(#fill6)" fill-rule="evenodd"/><path d="M2849.05 999.784 2913.51 1046.62 2893.57 1068.55C2876.17 1089.63 2860.75 1112.42 2847.61 1136.62L2841.16 1150 2782.21 1130.85 2795.02 1095.86C2807.96 1065.26 2823.8 1036.17 2842.19 1008.95Z" fill="url(#fill7)" fill-rule="evenodd"/><path d="M3683.87 999.784 3690.73 1008.95C3709.12 1036.17 3724.96 1065.26 3737.91 1095.87L3750.71 1130.85 3616.61 1174.42 3616.43 1173.94C3605.63 1148.4 3592.42 1124.13 3577.07 1101.42L3565.42 1085.84Z" fill="url(#fill8)" fill-rule="evenodd"/><path d="M2777.76 1143.07 2835.47 1161.82 2829.63 1173.94C2818.83 1199.48 2810.44 1226.29 2804.75 1254.08L2799.5 1288.53 2755.14 1288.53 2757.45 1242.71C2759.2 1225.51 2761.8 1208.56 2765.21 1191.91Z" fill="url(#fill9)" fill-rule="evenodd"/><path d="M3755.16 1143.06 3767.72 1191.91C3771.13 1208.56 3773.72 1225.51 3775.47 1242.71L3777.79 1288.53 3646.57 1288.53 3641.31 1254.08C3638.47 1240.19 3634.95 1226.54 3630.79 1213.17L3621.08 1186.63Z" fill="url(#fill10)" fill-rule="evenodd"/><path d="M2755.14 1301.52 2798.03 1301.52 2796.08 1340.13C2796.08 1369.61 2799.06 1398.38 2804.75 1426.18L2807.61 1437.28 2777.76 1446.98 2765.21 1398.14C2761.8 1381.48 2759.2 1364.54 2757.45 1347.34Z" fill="url(#fill11)" fill-rule="evenodd"/><path d="M2810.85 1449.89 2815.27 1467.09C2823.59 1493.83 2834.46 1519.44 2847.61 1543.64L2867.7 1576.71 2849.05 1590.26 2842.19 1581.09C2823.8 1553.87 2807.96 1524.79 2795.02 1494.18L2782.21 1459.19Z" fill="url(#fill12)" fill-rule="evenodd"/><text font-family="Segoe UI Semibold,Segoe UI Semibold_MSFontService,sans-serif" font-weight="600" font-size="147" transform="matrix(1 0 0 1 3560.85 1495)">100<tspan fill="#A6A6A6" font-family="Calibri,Calibri_MSFontService,sans-serif" font-weight="400" font-size="92" x="-266.149" y="108">porcentagem Meta</tspan></text></g></svg>