<svg width="1309" height="900" xmlns="http://www.w3.org/2000/svg" xmlns:xlink="http://www.w3.org/1999/xlink" overflow="hidden"><defs><clipPath id="clip0"><rect x="809" y="734" width="1309" height="900"/></clipPath><linearGradient x1="1574.23" y1="1043.81" x2="1684.42" y2="813.231" gradientUnits="userSpaceOnUse" spreadMethod="reflect" id="fill1"><stop offset="0" stop-color="#2B6D79" stop-opacity="0.501961"/><stop offset="0.5" stop-color="#429EAF" stop-opacity="0.501961"/><stop offset="1" stop-color="#51BDD0" stop-opacity="0.501961"/></linearGradient><linearGradient x1="1662.02" y1="1137.14" x2="1749.52" y2="939.086" gradientUnits="userSpaceOnUse" spreadMethod="reflect" id="fill2"><stop offset="0" stop-color="#2B6D79" stop-opacity="0.501961"/><stop offset="0.5" stop-color="#429EAF" stop-opacity="0.501961"/><stop offset="1" stop-color="#51BDD0" stop-opacity="0.501961"/></linearGradient><linearGradient x1="1715.62" y1="1279.28" x2="1808.02" y2="1093.43" gradientUnits="userSpaceOnUse" spreadMethod="reflect" id="fill3"><stop offset="0" stop-color="#2B6D79" stop-opacity="0.501961"/><stop offset="0.5" stop-color="#429EAF" stop-opacity="0.501961"/><stop offset="1" stop-color="#51BDD0" stop-opacity="0.501961"/></linearGradient></defs><g clip-path="url(#clip0)" transform="translate(-809 -734)"><path d="M1314.66 734.978 1314.66 866.32 1277.72 864.455C1262.99 864.454 1248.42 865.201 1234.07 866.659L1206.02 870.94 1169.2 757.604 1218.04 745.045C1234.69 741.637 1251.64 739.039 1268.84 737.292Z" fill="#BFBFBF" fill-rule="evenodd" fill-opacity="0.501961"/><path d="M1327.65 734.978 1373.47 737.292C1390.67 739.038 1407.62 741.637 1424.27 745.045L1473.11 757.604 1429.24 892.635 1404.69 883.65C1391.32 879.491 1377.67 875.973 1363.77 873.129L1327.65 867.616Z" fill="#BFBFBF" fill-rule="evenodd" fill-opacity="0.501961"/><path d="M1156.98 762.053 1193.01 872.926 1191.68 873.129C1163.88 878.816 1137.07 887.204 1111.53 898.007L1085.31 910.639 1025.92 828.889 1035.08 822.032C1062.31 803.642 1091.39 787.804 1122 774.858Z" fill="#BFBFBF" fill-rule="evenodd" fill-opacity="0.501961"/><path d="M1485.33 762.054 1520.31 774.859C1550.92 787.804 1580 803.643 1607.22 822.033L1616.39 828.89 1530.13 947.613 1516.44 937.372C1493.73 922.027 1469.45 908.81 1443.91 898.007L1441.45 897.104Z" fill="#BFBFBF" fill-rule="evenodd" fill-opacity="0.501961"/><path d="M1015.51 836.67 1073.47 916.44 1039.01 937.372C1027.65 945.045 1016.69 953.25 1006.14 961.951L977.127 988.322 911.522 940.658 926.339 920.844C947.193 895.574 970.426 872.341 995.696 851.487Z" fill="#BFBFBF" fill-rule="evenodd" fill-opacity="0.501961"/><path d="M1626.8 836.67 1646.61 851.487C1671.88 872.341 1695.11 895.574 1715.97 920.844L1730.79 940.658 1612.34 1026.72 1607.18 1019.83C1589.78 998.74 1570.39 979.353 1549.31 961.951L1540.54 955.394Z" fill="url(#fill1)" fill-rule="evenodd"/><path d="M903.74 951.063 968.199 997.895 948.266 1019.83C930.863 1040.91 915.446 1063.7 902.301 1087.9L895.853 1101.28 836.905 1082.13 849.71 1047.14C862.655 1016.54 878.494 987.453 896.884 960.232Z" fill="#BFBFBF" fill-rule="evenodd" fill-opacity="0.501961"/><path d="M1738.57 951.064 1745.42 960.233C1763.81 987.453 1779.65 1016.54 1792.6 1047.14L1805.4 1082.13 1671.3 1125.7 1671.13 1125.22C1660.32 1099.68 1647.11 1075.41 1631.76 1052.7L1620.12 1037.12Z" fill="url(#fill2)" fill-rule="evenodd"/><path d="M832.456 1094.34 890.163 1113.09 884.322 1125.22C873.52 1150.76 865.132 1177.57 859.444 1205.36L854.188 1239.81 809.831 1239.81 812.144 1193.99C813.891 1176.79 816.49 1159.84 819.897 1143.19Z" fill="#BFBFBF" fill-rule="evenodd" fill-opacity="0.501961"/><path d="M1809.85 1094.34 1822.41 1143.19C1825.82 1159.84 1828.42 1176.79 1830.16 1193.99L1832.48 1239.81 1701.26 1239.81 1696.01 1205.36C1693.16 1191.47 1689.64 1177.82 1685.48 1164.45L1675.77 1137.91Z" fill="url(#fill3)" fill-rule="evenodd"/><path d="M809.83 1252.8 852.719 1252.8 850.77 1291.41C850.77 1320.89 853.756 1349.66 859.444 1377.46L862.3 1388.56 832.456 1398.26 819.897 1349.42C816.489 1332.76 813.891 1315.82 812.144 1298.62Z" fill="#BFBFBF" fill-rule="evenodd" fill-opacity="0.501961"/><path d="M865.541 1401.17 869.965 1418.37C878.281 1445.11 889.155 1470.72 902.301 1494.92L922.391 1527.99 903.741 1541.54 896.884 1532.37C878.495 1505.15 862.656 1476.07 849.71 1445.46L836.905 1410.47Z" fill="#BFBFBF" fill-rule="evenodd" fill-opacity="0.501961"/><text font-family="Segoe UI Semibold,Segoe UI Semibold_MSFontService,sans-serif" font-weight="600" font-size="147" transform="matrix(1 0 0 1 1615.54 1446)">100<tspan fill="#A6A6A6" font-family="Calibri,Calibri_MSFontService,sans-serif" font-weight="400" font-size="92" x="-266.149" y="108">porcentagem Meta</tspan></text></g></svg>